<svg xmlns="http://www.w3.org/2000/svg" height="48px" viewBox="0 -960 960 960" width="48px" fill="#000000"><path d="M190-99q-37.45 0-64.22-26.78Q99-152.55 99-190v-580q0-37.86 26.78-64.93Q152.55-862 190-862h330q20.37 0 32.68 20Q565-822 556-799q-7 15-10.5 32.09-3.5 17.09-3.5 33.44 0 79.39 55.48 135.43Q652.97-542 732.47-542q16.35 0 33.94-3.5Q784-549 799-556q23.09-8 43.05 3.02Q862-541.97 862-520v330q0 37.45-27.07 64.22Q807.86-99 770-99H190Zm52-185h476L576-473 449-307l-94-124-113 147Zm491.02-318q-13.65 0-24.39-10.48t-10.74-24.97v-59.44h-61.44q-14.07 0-24.26-10.5Q602-717.88 602-732.25q0-13.94 10.49-23.34 10.5-9.41 25.01-9.41H698v-62.6q0-13.75 10.37-24.07Q718.73-862 733.14-862q13.99 0 23.42 10.33Q766-841.35 766-827.6v62.6h61.6q13.75 0 24.07 9.7Q862-745.61 862-731.91q0 13.69-10.33 24.3Q841.35-697 827.6-697H766v60.5q0 14.09-9.67 24.29Q746.67-602 733.02-602Z"/></svg>