<svg xmlns="http://www.w3.org/2000/svg" height="48px" viewBox="0 -960 960 960" width="48px" fill="#000000">
    <path d="M687.71-59q-55.88 0-95.79-39.63Q552-138.25 552-193q0-8 5-26.83L284-379q-19.38 17.28-41.46 26.14Q220.45-344 194.5-344q-57.04 0-96.27-39.99Q59-423.97 59-480.31q0-56.35 39.16-96.52Q137.32-617 194.26-617q26.45 0 48.91 9.86Q265.62-597.28 284-582l272-156q-2-7-3-14.04-1-7.04-1-13.48 0-55.98 39.92-96.73Q631.83-903 688-903q53.5 0 94.25 41.25T823-766q0 54.5-40.77 94.75T687.5-631q-27.14 0-50.32-10.5T597-667L325-518.04q3 8.9 4.5 19.19 1.5 10.29 1.5 19.07 0 8.78-.5 17.93T326-445l270 153q20.03-17.06 41.81-27.03 21.77-9.97 50.38-9.97 55.39 0 95.1 40.28Q823-248.44 823-192.97q0 54.47-41.04 94.22Q740.91-59 687.71-59Z"/>
</svg>